<svg width="68" height="69" viewBox="0 0 68 69" fill="none" xmlns="http://www.w3.org/2000/svg">
<g clip-path="url(#clip0_4_2)">
<path d="M33.28 49.68V61.83" stroke="#333333" stroke-width="2" stroke-linecap="round" stroke-linejoin="round"/>
<path d="M62.74 6.63H3.82001V49.68H62.74V6.63Z" fill="white" stroke="#333333" stroke-width="2" stroke-linecap="round" stroke-linejoin="round"/>
<path d="M66.55 0H0V8.41H66.55V0Z" fill="#077EE4"/>
<path d="M33.28 64.85C34.9479 64.85 36.3 63.4979 36.3 61.83C36.3 60.1621 34.9479 58.81 33.28 58.81C31.6121 58.81 30.26 60.1621 30.26 61.83C30.26 63.4979 31.6121 64.85 33.28 64.85Z" fill="white" stroke="#333333" stroke-width="2" stroke-linecap="round" stroke-linejoin="round"/>
<path d="M1.48999 49.68H65.07" stroke="#282828" stroke-width="2" stroke-linecap="round" stroke-linejoin="round"/>
<path d="M14.7 33.74L26.2 22.24L40.52 30.76L52.67 18.1" stroke="#333333" stroke-width="2" stroke-linecap="round" stroke-linejoin="round"/>
<path d="M14.7 36.72C16.3458 36.72 17.68 35.3858 17.68 33.74C17.68 32.0942 16.3458 30.76 14.7 30.76C13.0542 30.76 11.72 32.0942 11.72 33.74C11.72 35.3858 13.0542 36.72 14.7 36.72Z" fill="#077EE4"/>
<path d="M26.2 25.22C27.8458 25.22 29.18 23.8858 29.18 22.24C29.18 20.5942 27.8458 19.26 26.2 19.26C24.5542 19.26 23.22 20.5942 23.22 22.24C23.22 23.8858 24.5542 25.22 26.2 25.22Z" fill="#077EE4"/>
<path d="M40.52 33.74C42.1658 33.74 43.5 32.4058 43.5 30.76C43.5 29.1142 42.1658 27.78 40.52 27.78C38.8742 27.78 37.54 29.1142 37.54 30.76C37.54 32.4058 38.8742 33.74 40.52 33.74Z" fill="#077EE4"/>
<path d="M52.67 21.08C54.3158 21.08 55.65 19.7458 55.65 18.1C55.65 16.4542 54.3158 15.12 52.67 15.12C51.0242 15.12 49.69 16.4542 49.69 18.1C49.69 19.7458 51.0242 21.08 52.67 21.08Z" fill="#077EE4"/>
<path d="M66.55 65.57L63.09 67.85L43.48 38.09C42.85 37.13 43.11 35.85 44.07 35.22C45.03 34.59 46.31 34.85 46.94 35.81L66.55 65.57Z" fill="white" stroke="#333333" stroke-width="2" stroke-linecap="round" stroke-linejoin="round"/>
</g>
<defs>
<clipPath id="clip0_4_2">
<rect width="67.55" height="68.85" fill="white"/>
</clipPath>
</defs>
</svg>
