<svg width="72" height="84" viewBox="0 0 72 84" fill="none" xmlns="http://www.w3.org/2000/svg">
<g clip-path="url(#clip0_4_29)">
<path d="M35.8 47.3V31.97" stroke="#333333" stroke-width="2" stroke-linecap="round" stroke-linejoin="round"/>
<path d="M35.8 47.3L22.53 54.96" stroke="#333333" stroke-width="2" stroke-linecap="round" stroke-linejoin="round"/>
<path d="M35.8 47.3L49.08 54.96" stroke="#333333" stroke-width="2" stroke-linecap="round" stroke-linejoin="round"/>
<path d="M70.8 47.3C70.8 66.63 55.13 82.29 35.81 82.29C-10.61 80.45 -10.6 14.14 35.81 12.3C55.13 12.3 70.8 27.97 70.8 47.3Z" stroke="#333333" stroke-width="2" stroke-linecap="round" stroke-linejoin="round"/>
<path d="M38.87 13.17V13.14C38.87 12.48 39.2 11.9 39.69 11.46C40.42 10.8 40.89 9.84 40.89 8.78V4.64C40.89 2.63 39.26 1 37.25 1H34.37C32.36 1 30.73 2.63 30.73 4.64V8.77C30.73 9.84 31.19 10.79 31.93 11.45C32.42 11.89 32.75 12.48 32.75 13.13V13.16C32.75 14.12 32.11 14.96 31.19 15.22L28 16.12C26.46 16.56 25.39 17.96 25.39 19.57V25.63H46.24V19.57C46.24 17.97 45.18 16.56 43.63 16.12L40.44 15.22C39.5 14.97 38.87 14.13 38.87 13.17V13.17Z" fill="white" stroke="#333333" stroke-width="2" stroke-linecap="round" stroke-linejoin="round"/>
<path d="M15.78 69.5V69.47C15.78 68.81 16.11 68.23 16.6 67.79C17.33 67.13 17.8 66.17 17.8 65.11V60.98C17.8 58.97 16.17 57.34 14.16 57.34H11.28C9.26999 57.34 7.63999 58.97 7.63999 60.98V65.11C7.63999 66.18 8.09999 67.13 8.83999 67.79C9.32999 68.23 9.65999 68.82 9.65999 69.47V69.5C9.65999 70.46 9.01999 71.3 8.09999 71.56L4.90999 72.46C3.36999 72.9 2.29999 74.3 2.29999 75.91V81.97H23.15V75.91C23.15 74.31 22.09 72.9 20.54 72.46L17.35 71.56C16.41 71.3 15.78 70.46 15.78 69.5V69.5Z" fill="white" stroke="#333333" stroke-width="2" stroke-linecap="round" stroke-linejoin="round"/>
<path d="M61.96 69.5V69.47C61.96 68.81 62.29 68.23 62.78 67.79C63.51 67.13 63.98 66.17 63.98 65.11V60.98C63.98 58.97 62.35 57.34 60.34 57.34H57.46C55.45 57.34 53.82 58.97 53.82 60.98V65.11C53.82 66.18 54.28 67.13 55.02 67.79C55.51 68.23 55.84 68.82 55.84 69.47V69.5C55.84 70.46 55.2 71.3 54.28 71.56L51.09 72.46C49.55 72.9 48.48 74.3 48.48 75.91V81.97H69.33V75.91C69.33 74.31 68.27 72.9 66.72 72.46L63.53 71.56C62.6 71.3 61.96 70.46 61.96 69.5V69.5Z" fill="white" stroke="#333333" stroke-width="2" stroke-linecap="round" stroke-linejoin="round"/>
<path d="M35.8 56.09C40.6546 56.09 44.59 52.1546 44.59 47.3C44.59 42.4454 40.6546 38.51 35.8 38.51C30.9454 38.51 27.01 42.4454 27.01 47.3C27.01 52.1546 30.9454 56.09 35.8 56.09Z" fill="#077EE4"/>
</g>
<defs>
<clipPath id="clip0_4_29">
<rect width="71.8" height="83.29" fill="white"/>
</clipPath>
</defs>
</svg>
