<svg width="74" height="81" viewBox="0 0 74 81" fill="none" xmlns="http://www.w3.org/2000/svg">
<g clip-path="url(#clip0_4_14)">
<path d="M42.7177 16.0337L0.992432 20.5592L6.94011 75.3976L48.6654 70.8721L42.7177 16.0337Z" fill="white" stroke="#333333" stroke-width="2" stroke-linecap="round" stroke-linejoin="round"/>
<path d="M53.39 67.28H12.75C10.85 67.28 9.29999 65.74 9.29999 63.83V11.03C9.29999 9.13 10.84 7.58 12.75 7.58H53.39C55.29 7.58 56.84 9.12 56.84 11.03V63.83C56.84 65.73 55.3 67.28 53.39 67.28Z" fill="white" stroke="#282828" stroke-width="2" stroke-linecap="round" stroke-linejoin="round"/>
<path d="M52.37 12.15H13.77V62.88H52.37V12.15Z" stroke="#333333" stroke-width="2" stroke-linecap="round" stroke-linejoin="round"/>
<path d="M35.33 27.19V37.31H45.45C45.45 31.72 40.92 27.19 35.33 27.19V27.19Z" fill="#077EE4"/>
<path d="M32.99 29.69C27.4 29.69 22.87 34.22 22.87 39.81C22.87 45.4 27.4 49.93 32.99 49.93C35.78 49.93 38.31 48.8 40.14 46.97L32.99 39.82V29.69V29.69Z" stroke="#333333" stroke-width="2" stroke-linecap="round" stroke-linejoin="round"/>
<path d="M35.33 38.83L42.48 45.98C44.31 44.15 45.44 41.62 45.44 38.83H35.33Z" fill="#333333"/>
<path d="M41.47 4.89C41.47 2.74 37.71 1 33.07 1C28.43 1 24.67 2.74 24.67 4.89H21.63V14.66H44.51V4.89H41.47V4.89Z" fill="white" stroke="#282828" stroke-width="2" stroke-linecap="round" stroke-linejoin="round"/>
<path d="M68.76 37.76H62.12L63.94 34.73H66.94L68.76 37.76Z" stroke="#333333" stroke-miterlimit="10"/>
<path d="M68.75 37.76H62.12V70.84H68.75V37.76Z" stroke="#333333" stroke-width="2" stroke-linecap="round" stroke-linejoin="round"/>
<path d="M66.94 34.73H63.94L65.44 32.24L66.94 34.73Z" fill="#333333" stroke="#333333" stroke-miterlimit="10"/>
<path d="M62.12 77.1V70.83H68.75V77.1C68.75 78.58 67.55 79.79 66.06 79.79H64.8C63.33 79.79 62.12 78.59 62.12 77.1Z" stroke="#333333" stroke-width="2" stroke-linecap="round" stroke-linejoin="round"/>
<path d="M68.76 70.84H72.14V54.3" stroke="#333333" stroke-width="2" stroke-linecap="round" stroke-linejoin="round"/>
</g>
<defs>
<clipPath id="clip0_4_14">
<rect width="73.14" height="80.79" fill="white"/>
</clipPath>
</defs>
</svg>
