<?xml version="1.0" encoding="utf-8"?>
<!-- Generator: Adobe Illustrator 26.2.1, SVG Export Plug-In . SVG Version: 6.00 Build 0)  -->
<svg version="1.1" id="z" xmlns="http://www.w3.org/2000/svg" xmlns:xlink="http://www.w3.org/1999/xlink" x="0px" y="0px"
	 viewBox="0 0 80.7 80.7" style="enable-background:new 0 0 80.7 80.7;" xml:space="preserve">
<style type="text/css">
	.st0{fill:none;stroke:#FFFFFF;stroke-width:2;stroke-miterlimit:10;}
</style>
<path class="st0" d="M37.1,69.1l1.1,1.1c1.7,1.7,4.6,1.7,6.3,0c1.7-1.7,1.7-4.6,0-6.3l1.6,1.6c1.7,1.7,4.6,1.7,6.3,0s1.7-4.6,0-6.3
	l1.7,1.7c1.7,1.7,4.6,1.7,6.3,0s1.7-4.6,0-6.3l-1.7-1.7c1.7,1.7,4.6,1.7,6.3,0c1.7-1.7,1.7-4.6,0-6.3l-2.7-2.7L48.7,30.1"/>
<polyline class="st0" points="6.3,30.5 11.4,35.5 15.7,44.7 "/>
<polyline class="st0" points="37.7,19.2 28.9,18 23.6,12.7 "/>
<line class="st0" x1="48.7" y1="30.1" x2="45.5" y2="26.9"/>
<path class="st0" d="M62.7,10l-5.2,5.1l-17.7,2L21.7,35.2l0.7,0.7c2.9,2.9,7.7,2.9,10.6,0l7.3-7.3h6.9l17.5,17.3l8.4-8.2l0.2-7.1
	l5.2-5.1"/>
<g>
	<path class="st0" d="M11.1,55l-0.3-0.3c-1.5-1.5-1.5-4,0-5.5l4.5-4.5c1.5-1.5,4-1.5,5.5,0l0.3,0.3c1.5,1.5,1.5,4,0,5.5L16.6,55
		C15.1,56.5,12.6,56.5,11.1,55z"/>
	<path class="st0" d="M15.4,62.4L15,62.1c-1.5-1.5-1.5-4,0-5.5l6.1-6.1c1.5-1.5,4-1.5,5.5,0l0.3,0.3c1.5,1.5,1.5,4,0,5.5l-6.1,6.1
		C19.4,63.9,16.9,63.9,15.4,62.4z"/>
	<path class="st0" d="M22.8,66.7l-0.3-0.3c-1.5-1.5-1.5-4,0-5.5l4.5-4.5c1.5-1.5,4-1.5,5.5,0l0.3,0.3c1.5,1.5,1.5,4,0,5.5l-4.5,4.5
		C26.8,68.2,24.3,68.2,22.8,66.7z"/>
	<path class="st0" d="M30.2,71.1l-0.3-0.3c-1.5-1.5-1.5-4,0-5.5l3-3c1.5-1.5,4-1.5,5.5,0l0.3,0.3c1.5,1.5,1.5,4,0,5.5l-3,3
		C34.2,72.6,31.7,72.6,30.2,71.1z"/>
</g>
</svg>
