<?xml version="1.0" encoding="utf-8"?>
<!-- Generator: Adobe Illustrator 26.2.1, SVG Export Plug-In . SVG Version: 6.00 Build 0)  -->
<svg version="1.1" id="z" xmlns="http://www.w3.org/2000/svg" xmlns:xlink="http://www.w3.org/1999/xlink" x="0px" y="0px"
	 viewBox="0 0 80.7 80.7" style="enable-background:new 0 0 80.7 80.7;" xml:space="preserve">
<style type="text/css">
	.st0{fill:none;}
	.st1{fill:none;stroke:#FFFFFF;stroke-width:2;stroke-linecap:round;stroke-linejoin:round;stroke-miterlimit:10;}
</style>
<rect class="st0" width="80.7" height="80.7"/>
<g>
	<path class="st1" d="M57.7,19.9c0-3,2.4-5.4,5.4-5.4s5.4,2.4,5.4,5.4c0,1.6-1.5,4.7-2.9,7.3"/>
	<path class="st1" d="M62.5,24.6c5.3,5.5,8.5,12.9,8.5,21.1c0,16.9-13.7,30.6-30.6,30.6c-16.9,0-30.6-13.7-30.6-30.6
		c0-5.1,1.3-10,3.5-14.2"/>
	<path class="st1" d="M20.6,22.4c3.5-3,7.7-5.1,12.2-6.3"/>
	<path class="st1" d="M47.6,16c5.9,1.4,11.1,4.4,15.2,8.6c-5.6,5.8-13.4,9.4-22.1,9.4c-6.9,0-13.3-2.3-18.4-6.2"/>
	<path class="st1" d="M47.3,16"/>
	<path class="st1" d="M32.9,16.1"/>
	<line class="st1" x1="27.8" y1="45.8" x2="71" y2="45.8"/>
	<line class="st1" x1="9.8" y1="45.8" x2="22.2" y2="45.8"/>
	<line class="st1" x1="40.4" y1="29.5" x2="40.4" y2="76.4"/>
	<path class="st1" d="M33.7,18.2c-4.8,4.6-8.3,14-8.8,25.1"/>
	<path class="st1" d="M33.7,18.2"/>
	<path class="st1" d="M46.9,18"/>
	<path class="st1" d="M54.5,58.2c0.9-3.8,1.3-8,1.3-12.4c0-12.3-3.7-22.9-9-27.8"/>
	<path class="st1" d="M24.9,48.3c0.7,15.7,7.3,28,15.4,28c5.3,0,10-5.3,12.8-13.3"/>
	<path class="st1" d="M24.9,43.2C24.9,43.2,24.9,43.2,24.9,43.2c-1.5,0-2.6,1.1-2.6,2.5c0,1.4,1.1,2.6,2.6,2.6c0,0,0,0,0.1,0
		c1.4,0,2.5-1.2,2.5-2.5C27.4,44.4,26.3,43.3,24.9,43.2z"/>
	<g>
		<path class="st1" d="M51.6,59.6c-3.5-1.4-7.3-2.1-11.2-2.1c-8.7,0-16.5,3.6-22.1,9.4c5.6,5.8,13.4,9.4,22.1,9.4
			c8.7,0,16.5-3.6,22.1-9.4c-1.9-1.9-4-3.6-6.3-5"/>
		<path class="st1" d="M54.5,58.2c-0.2-0.1-0.4-0.1-0.6-0.1c-1,0-1.9,0.6-2.3,1.5c-0.1,0.3-0.2,0.7-0.2,1c0,1.1,0.8,2.1,1.8,2.4
			c0.2,0.1,0.5,0.1,0.8,0.1c1,0,1.8-0.5,2.2-1.3c0.2-0.4,0.3-0.8,0.3-1.2C56.5,59.5,55.7,58.5,54.5,58.2z"/>
	</g>
	<path class="st1" d="M48.5,12.6c0,4.5-8.2,17.9-8.2,17.9S32,17.1,32,12.6s3.7-8.2,8.2-8.2S48.5,8.1,48.5,12.6z"/>
	<path class="st1" d="M22.3,26.3c0,3-5.4,11.8-5.4,11.8s-5.4-8.8-5.4-11.8s2.4-5.4,5.4-5.4S22.3,23.3,22.3,26.3z"/>
</g>
</svg>
