<?xml version="1.0" encoding="utf-8"?>
<!-- Generator: Adobe Illustrator 26.2.1, SVG Export Plug-In . SVG Version: 6.00 Build 0)  -->
<svg version="1.1" id="z" xmlns="http://www.w3.org/2000/svg" xmlns:xlink="http://www.w3.org/1999/xlink" x="0px" y="0px"
	 viewBox="0 0 80.7 80.7" style="enable-background:new 0 0 80.7 80.7;" xml:space="preserve">
<style type="text/css">
	.st0{fill:none;stroke:#FFFFFF;stroke-width:2;stroke-miterlimit:10;}
</style>
<g>
	<polygon class="st0" points="48.1,46 47.7,41 47.4,36.4 47.1,31.4 46.8,26.8 46.4,21.2 38.3,21.2 37.9,26.8 37.6,31.4 37.3,36.4 
		36.9,41 36.6,46 36.1,53.5 48.2,48.5 	"/>
	<polygon class="st0" points="24.1,46 23.7,41 23.4,36.4 23.1,31.4 22.8,26.8 22.4,21.2 14.3,21.2 13.9,26.8 13.6,31.4 13.3,36.4 
		13,41 12.6,46 12.1,53.5 24.2,48.5 	"/>
	<polygon class="st0" points="54.3,55.8 54.3,46 48.2,48.5 36.1,53.5 30.3,55.8 30.3,46 24.2,48.5 12.1,53.5 6.3,55.8 6.3,77.1 
		30.3,77.1 54.3,77.1 78.3,77.1 78.3,46 	"/>
</g>
<rect x="17" y="60.9" class="st0" width="5.8" height="5.8"/>
<rect x="41" y="60.9" class="st0" width="5.8" height="5.8"/>
<rect x="63" y="60.9" class="st0" width="5.8" height="5.8"/>
<path class="st0" d="M18.3,5.1L18.3,5.1c1.4,1.3,1.4,3.3,0,4.6l0,0c-1.4,1.3-1.4,3.3,0,4.6"/>
<path class="st0" d="M42.1,5.1L42.1,5.1c1.4,1.3,1.4,3.3,0,4.6l0,0c-1.4,1.3-1.4,3.3,0,4.6"/>
</svg>
