<?xml version="1.0" encoding="utf-8"?>
<!-- Generator: Adobe Illustrator 26.2.1, SVG Export Plug-In . SVG Version: 6.00 Build 0)  -->
<svg version="1.1" id="z" xmlns="http://www.w3.org/2000/svg" xmlns:xlink="http://www.w3.org/1999/xlink" x="0px" y="0px"
	 viewBox="0 0 80.7 80.7" style="enable-background:new 0 0 80.7 80.7;" xml:space="preserve">
<style type="text/css">
	.st0{fill:none;stroke:#FFFFFF;stroke-width:2;stroke-miterlimit:10;}
</style>
<polyline class="st0" points="74,42.3 74,34.7 68.9,31.7 "/>
<path class="st0" d="M70.2,29.2l6,3.4c0.4,0.3,0.7,0.7,0.7,1.2v8.4"/>
<path class="st0" d="M59.3,42.3v-8.4c0-0.5,0.3-1,0.7-1.2l5.8-3.4"/>
<polyline class="st0" points="67.3,31.7 62.2,34.7 62.2,42.3 "/>
<path class="st0" d="M68.1,23.3L68.1,23.3c-1.2,0-2.1-0.9-2.1-2.1V10h4.1v11.3C70.2,22.4,69.2,23.3,68.1,23.3z"/>
<line class="st0" x1="66" y1="13.6" x2="39.4" y2="13.6"/>
<path class="st0" d="M40.1,6.4h28c2,0,3.6,1.6,3.6,3.6c0,1.2-0.6,2.3-1.5,2.9"/>
<path class="st0" d="M38.4,13.6"/>
<path class="st0" d="M39,6.1c1.1,1.1,1.6,2.5,1.6,3.9S40,12.8,39,13.9L24,28.7l-2.8,2.8"/>
<path class="st0" d="M11.8,25.4l3.4-3.3l16-15.9C33.3,4,36.8,4,39,6.1"/>
<path class="st0" d="M57.4,76.5H12.7v0c0-2.9,2.4-5.3,5.3-5.3h34.1C55.1,71.2,57.4,73.6,57.4,76.5L57.4,76.5z"/>
<path class="st0" d="M35.1,44.6c-5.9,0-10.7,4.8-10.7,10.7v15.9h21.4V55.2C45.8,49.4,41,44.6,35.1,44.6z"/>
<ellipse class="st0" cx="35.1" cy="55.2" rx="3.8" ry="3.7"/>
<circle class="st0" cx="12.5" cy="32.6" r="2.6"/>
<ellipse class="st0" cx="35.1" cy="10" rx="1.9" ry="1.9"/>
<line class="st0" x1="68.1" y1="23.3" x2="68.1" y2="28.4"/>
<polygon class="st0" points="66.9,27.5 69.3,27.5 70.5,29.6 69.3,31.7 66.9,31.7 65.7,29.6 "/>
<path class="st0" d="M24.4,55.2L7.2,38c-2.8-2.8-2.8-7.4,0-10.2c2.8-2.8,7.4-2.8,10.2,0l16.8,16.8"/>
</svg>
