<?xml version="1.0" encoding="utf-8"?>
<!-- Generator: Adobe Illustrator 27.0.1, SVG Export Plug-In . SVG Version: 6.00 Build 0)  -->
<svg version="1.1" id="레이어_1" xmlns="http://www.w3.org/2000/svg" xmlns:xlink="http://www.w3.org/1999/xlink" x="0px"
	 y="0px" viewBox="0 0 104 104" style="enable-background:new 0 0 104 104;" xml:space="preserve">
<style type="text/css">
	.st0{fill:#182343;stroke:#FFFFFF;stroke-width:2;}
	.st1{fill:none;stroke:#00FFFF;stroke-width:2;}
	.st2{fill:none;stroke:#00FFFF;stroke-width:2;stroke-linecap:round;stroke-linejoin:round;}
	.st3{fill:none;stroke:#FFFFFF;stroke-width:2;}
	.st4{fill:#182343;stroke:#FFFFFF;stroke-width:2;stroke-linecap:round;stroke-linejoin:round;}
	.st5{fill:none;stroke:#FFFFFF;stroke-width:2;stroke-linecap:round;stroke-linejoin:round;}
</style>
<g>
	<g>
		<polyline class="st0" points="20.2,60.4 38.9,45.6 57.6,54.9 76.3,64.2 		"/>
		<g>
			<rect x="14.4" y="69.8" class="st1" width="11.6" height="31.7"/>
			<path class="st0" d="M24.1,60.4c0,2.2-1.8,3.9-3.9,3.9c-2.2,0-3.9-1.8-3.9-3.9s1.8-3.9,3.9-3.9C22.4,56.4,24.1,58.2,24.1,60.4z"
				/>
			<rect x="33.1" y="55" class="st2" width="11.6" height="46.5"/>
			<path class="st0" d="M42.8,45.6c0,2.2-1.8,3.9-3.9,3.9S35,47.7,35,45.6c0-2.2,1.8-3.9,3.9-3.9S42.8,43.4,42.8,45.6z"/>
			<rect x="51.8" y="64.3" class="st1" width="11.6" height="37.2"/>
			<path class="st0" d="M61.6,54.9c0,2.2-1.8,3.9-3.9,3.9c-2.2,0-3.9-1.8-3.9-3.9c0-2.2,1.8-3.9,3.9-3.9
				C59.8,50.9,61.6,52.7,61.6,54.9z"/>
			<rect x="70.5" y="73.6" class="st1" width="11.6" height="27.8"/>
			<path class="st0" d="M80.3,64.2c0,2.2-1.8,3.9-3.9,3.9c-2.2,0-3.9-1.8-3.9-3.9c0-2.2,1.8-3.9,3.9-3.9
				C78.5,60.3,80.3,62,80.3,64.2z"/>
			<line class="st3" x1="5.7" y1="101.4" x2="90.8" y2="101.4"/>
		</g>
	</g>
	<g>
		<path class="st4" d="M76.5,24.2v21.9c0,2-1.6,3.6-3.6,3.6l0,0c-2,0-3.6-1.6-3.6-3.6"/>
		<line class="st5" x1="76.5" y1="2.6" x2="76.5" y2="6.6"/>
		<g>
			<path class="st4" d="M86,27c-0.4-11.3-4.4-20.1-9.3-20.1s-9,8.9-9.3,20.1c1.8-1.9,5.3-3.2,9.3-3.2S84.2,25.1,86,27z"/>
		</g>
		<g>
			<path class="st4" d="M55,25.4c1.3-0.3,2.8-0.5,4.3-0.5c3.4,0,6.3,0.8,8,2.1c0.4-11.3,4.4-20.1,9.3-20.1
				C65.7,6.9,56.6,14.9,55,25.4z"/>
			<path class="st4" d="M98.3,25.4C96.6,14.9,87.6,6.9,76.7,6.9c4.9,0,9,8.9,9.3,20.2l0,0c1.7-1.3,4.6-2.1,8-2.1
				C95.5,24.9,97,25.1,98.3,25.4z"/>
		</g>
	</g>
</g>
</svg>
