<?xml version="1.0" encoding="utf-8"?>
<!-- Generator: Adobe Illustrator 26.2.1, SVG Export Plug-In . SVG Version: 6.00 Build 0)  -->
<svg version="1.1" id="레이어_1" xmlns="http://www.w3.org/2000/svg" xmlns:xlink="http://www.w3.org/1999/xlink" x="0px"
	 y="0px" viewBox="0 0 104 104" style="enable-background:new 0 0 104 104;" xml:space="preserve">
<style type="text/css">
	.st0{fill:#182343;stroke:#0971FF;stroke-width:2;}
	.st1{fill:none;stroke:#FFFFFF;stroke-width:2;}
	.st2{fill:#0971FF;}
	.st3{fill:none;stroke:#FCFCFC;stroke-width:2;}
</style>
<g>
	<g>
		<polygon class="st0" points="24.9,43.6 58.8,79.1 92.7,43.6 77.9,43.6 77.9,4.2 39.8,4.2 39.8,43.6 		"/>
	</g>
	<g>
		<g>
			<path class="st1" d="M40.6,72.5c0.4,1.2-0.2,2.1-1.5,2.1H23.8c-1.2,0-1.9-0.9-1.5-2.1l2.9-7.6c0.4-1.2,1.8-2.1,3.1-2.1h6.3
				c1.2,0,2.6,0.9,3.1,2.1L40.6,72.5z"/>
		</g>
		<g>
			<path class="st1" d="M31.3,84.3c0.4,1.2-0.2,2.1-1.5,2.1H14.5c-1.2,0-1.9-0.9-1.5-2.1l2.9-7.6c0.4-1.2,1.8-2.1,3.1-2.1h6.3
				c1.2,0,2.6,0.9,3.1,2.1L31.3,84.3z"/>
			<path class="st1" d="M49.9,84.3c0.4,1.2-0.2,2.1-1.5,2.1H33.1c-1.2,0-1.9-0.9-1.5-2.1l2.9-7.6c0.4-1.2,1.8-2.1,3.1-2.1h6.3
				c1.2,0,2.6,0.9,3.1,2.1L49.9,84.3z"/>
		</g>
		<g>
			<path class="st1" d="M21.8,96.4c0.4,1.2-0.2,2.1-1.5,2.1H5c-1.2,0-1.9-0.9-1.5-2.1l2.9-7.6c0.4-1.2,1.8-2.1,3.1-2.1h6.3
				c1.2,0,2.6,0.9,3.1,2.1L21.8,96.4z"/>
			<path class="st1" d="M40.6,96.4c0.4,1.2-0.2,2.1-1.5,2.1H23.8c-1.2,0-1.9-0.9-1.5-2.1l2.9-7.6c0.4-1.2,1.8-2.1,3.1-2.1h6.3
				c1.2,0,2.6,0.9,3.1,2.1L40.6,96.4z"/>
			<path class="st1" d="M59.4,96.4c0.4,1.2-0.2,2.1-1.5,2.1H42.6c-1.2,0-1.9-0.9-1.5-2.1l2.9-7.6c0.4-1.2,1.8-2.1,3.1-2.1h6.3
				c1.2,0,2.6,0.9,3.1,2.1L59.4,96.4z"/>
		</g>
	</g>
	<g>
		<polygon class="st0" points="39.4,49 58.8,69.4 78.2,49 70.7,49 70.7,11.5 45.9,11.5 45.9,49 		"/>
	</g>
	<g>
		<g>
			<path class="st2" d="M52.4,32.5h2.2l0.9,5.3c0.2,1.1,0.3,2.3,0.5,3.5H56c0.2-1.2,0.5-2.3,0.7-3.5l1.3-5.3h1.9l1.3,5.3
				c0.2,1.1,0.5,2.3,0.7,3.5h0.1c0.2-1.2,0.3-2.3,0.5-3.5l0.9-5.3h2.1l-2,10.9h-2.7L59.3,38c-0.2-0.9-0.3-1.7-0.5-2.5h-0.1
				c-0.1,0.8-0.3,1.7-0.5,2.5l-1.2,5.4h-2.7L52.4,32.5z"/>
		</g>
		<rect x="50.8" y="37.1" class="st2" width="16.1" height="1.7"/>
	</g>
	<g>
		<g>
			<path class="st3" d="M93.4,61.5L88,70.8c2,0.3,4.6,1.6,6.6,5.5c2.3,4.6,1.2,14.9,2.8,17.9c1.6,2.9,3.3,5.6,3.3,5.6H64.9
				c0,0,1.7-2.6,3.3-5.6c1.6-2.9,0.4-13.2,2.8-17.9c1.9-3.9,4.5-5.2,6.6-5.5l-5.4-9.4H93.4z"/>
		</g>
		<line class="st3" x1="77.6" y1="70.6" x2="87.9" y2="70.6"/>
	</g>
</g>
</svg>
