<?xml version="1.0" encoding="utf-8"?>
<!-- Generator: Adobe Illustrator 26.2.1, SVG Export Plug-In . SVG Version: 6.00 Build 0)  -->
<svg version="1.1" id="레이어_1" xmlns="http://www.w3.org/2000/svg" xmlns:xlink="http://www.w3.org/1999/xlink" x="0px"
	 y="0px" viewBox="0 0 104 104" style="enable-background:new 0 0 104 104;" xml:space="preserve">
<style type="text/css">
	.st0{fill:#091E42;stroke:#0071FF;stroke-width:2;stroke-linecap:round;stroke-linejoin:round;stroke-miterlimit:10;}
	.st1{fill:#091E42;stroke:#0071FF;stroke-width:2.5;stroke-linecap:round;stroke-linejoin:round;stroke-miterlimit:10;}
	.st2{fill:#FF8B36;}
	.st3{fill:#091E42;stroke:#FFFFFF;stroke-width:2;stroke-linecap:round;stroke-linejoin:round;stroke-miterlimit:10;}
</style>
<g>
	<path class="st0" d="M72.5,64.6v-9.6h-5.2c-0.7-3.8-2.2-7.3-4.3-10.4l3.7-3.7l-6.8-6.8l-3.7,3.7c-3.1-2.1-6.6-3.6-10.4-4.3v-5.2
		h-9.6v5.2c-3.8,0.7-7.3,2.2-10.4,4.3l-3.7-3.7L15.5,41l3.7,3.7c-2.1,3.1-3.6,6.6-4.3,10.4H9.7v9.6h5.2C15.6,68.4,17,72,19.2,75
		l-3.7,3.7l6.8,6.8l3.7-3.7c3.1,2.1,6.6,3.6,10.4,4.3v5.2h9.6v-5.2c3.8-0.7,7.3-2.2,10.4-4.3l3.7,3.7l6.8-6.8L63,75
		c2.1-3.1,3.6-6.6,4.3-10.4H72.5z"/>
	<circle class="st1" cx="41.1" cy="59.9" r="14.6"/>
	<circle class="st2" cx="41.1" cy="59.9" r="8.4"/>
	<path class="st3" d="M61.4,72.7L28.3,39.5c2-4.9,1-10.7-3-14.6c-4.4-4.4-11-5.1-16.1-2.3l9.8,9.8l-5.4,5.4L3.8,28
		C1,33.1,1.8,39.7,6.1,44.1c4,4,9.8,5,14.6,3l33.1,33.1c-2,4.9-1,10.7,3,14.6c4.4,4.4,11,5.1,16.1,2.3l-9.8-9.8l5.4-5.4l9.8,9.8
		c2.8-5.2,2.1-11.7-2.3-16.1C72.1,71.7,66.3,70.7,61.4,72.7z"/>
	<path class="st0" d="M101.9,24.6v-5.1h-2.8c-0.4-2-1.2-3.9-2.3-5.6l2-2l-3.6-3.6l-2,2c-1.6-1.1-3.5-1.9-5.6-2.3V5.2h-5.1V8
		c-2,0.4-3.9,1.2-5.6,2.3l-2-2l-3.6,3.6l2,2c-1.1,1.6-1.9,3.5-2.3,5.6h-2.8v5.1h2.8c0.4,2,1.2,3.9,2.3,5.6l-2,2l3.6,3.6l2-2
		c1.6,1.1,3.5,1.9,5.6,2.3v2.8h5.1v-2.8c2-0.4,3.9-1.2,5.6-2.3l2,2l3.6-3.6l-2-2c1.1-1.6,1.9-3.5,2.3-5.6H101.9z"/>
	<circle class="st1" cx="85" cy="22" r="7.8"/>
</g>
</svg>
