<?xml version="1.0" encoding="utf-8"?>
<!-- Generator: Adobe Illustrator 27.0.1, SVG Export Plug-In . SVG Version: 6.00 Build 0)  -->
<svg version="1.1" id="레이어_1" xmlns="http://www.w3.org/2000/svg" xmlns:xlink="http://www.w3.org/1999/xlink" x="0px"
	 y="0px" viewBox="0 0 104 104" style="enable-background:new 0 0 104 104;" xml:space="preserve">
<style type="text/css">
	.st0{fill:none;stroke:#FFFFFF;stroke-width:2.5;stroke-linecap:round;stroke-linejoin:round;stroke-miterlimit:10;}
	.st1{fill:#091E42;stroke:#00FFFF;stroke-width:2.5;stroke-linecap:round;stroke-linejoin:round;stroke-miterlimit:10;}
	.st2{fill:#091E42;stroke:#FFFFFF;stroke-width:2;stroke-miterlimit:10;}
	.st3{fill:none;stroke:#FFFFFF;stroke-width:2;stroke-miterlimit:10;}
</style>
<g>
	<polygon class="st0" points="13.4,28.6 13.4,73.7 52.4,96.2 91.4,73.7 91.4,28.6 52.4,6.1 	"/>
	<circle class="st1" cx="52" cy="7" r="5.3"/>
	<circle class="st1" cx="13" cy="29.5" r="5.3"/>
	<circle class="st1" cx="13" cy="74.5" r="5.3"/>
	<circle class="st1" cx="52" cy="97" r="5.3"/>
	<circle class="st1" cx="91" cy="74.5" r="5.3"/>
	<circle class="st1" cx="91" cy="29.5" r="5.3"/>
	<polygon class="st0" points="24.7,35.2 24.7,67.1 52.4,83.1 80.1,67.1 80.1,35.2 52.4,19.2 	"/>
	<g>
		<path class="st2" d="M69.7,59.3H35.2v1.3c0,1,0.8,1.9,1.9,1.9h30.8c1,0,1.9-0.8,1.9-1.9v-1.3H69.7z"/>
		<path class="st3" d="M67.4,59.3H37.5v-17c0-1.3,1.1-2.4,2.4-2.4h25c1.3,0,2.4,1.1,2.4,2.4L67.4,59.3L67.4,59.3z"/>
		<rect x="41" y="42.9" class="st3" width="22.9" height="13.3"/>
	</g>
</g>
</svg>
