<?xml version="1.0" encoding="utf-8"?>
<!-- Generator: Adobe Illustrator 26.2.1, SVG Export Plug-In . SVG Version: 6.00 Build 0)  -->
<svg version="1.1" id="레이어_1" xmlns="http://www.w3.org/2000/svg" xmlns:xlink="http://www.w3.org/1999/xlink" x="0px"
	 y="0px" viewBox="0 0 79.3 81.1" style="enable-background:new 0 0 79.3 81.1;" xml:space="preserve">
<style type="text/css">
	.st0{fill:#222222;stroke:#FFFFFF;stroke-width:4;stroke-miterlimit:10;}
	.st1{fill:#FFFFFF;}
</style>
<g>
	<path class="st0" d="M2.8,48.8V19.6c0-4.6,3.8-8.4,8.4-8.4h56.9c0.5,0,1,0,1.5,0.1c4,0.7,6.9,4.2,6.9,8.3v29.6
		c0,4.6-3.8,8.4-8.4,8.4h-8.5c-0.8,0-1.5,0.4-1.9,1l-6.8,11.2l-6.8-11.2c-0.4-0.6-1.1-1-1.9-1h-31c-4.6,0-8.4-3.8-8.4-8.4V48.8z"/>
	<path class="st1" d="M58.6,32.2c1.2,0,2.2,1,2.2,2.2c0,1.2-1,2.2-2.2,2.2c-1.2,0-2.2-1-2.2-2.2C56.4,33.2,57.4,32.2,58.6,32.2z"/>
	<path class="st1" d="M39.7,32.2c1.2,0,2.2,1,2.2,2.2c0,1.2-1,2.2-2.2,2.2c-1.2,0-2.2-1-2.2-2.2C37.5,33.2,38.5,32.2,39.7,32.2z"/>
	<path class="st1" d="M20.7,32.2c1.2,0,2.2,1,2.2,2.2c0,1.2-1,2.2-2.2,2.2c-1.2,0-2.2-1-2.2-2.2C18.5,33.2,19.5,32.2,20.7,32.2z"/>
</g>
</svg>
