<svg width="44" height="44" viewBox="0 0 44 44" fill="none" xmlns="http://www.w3.org/2000/svg">
<path d="M8 21.7966V15.1064C8 8.20594 13.4552 3 20.4262 3H22.951C29.9221 3 36 8.20594 36 15.1064V26.0975C36 32.2352 31.716 39 25.8621 39" stroke="#222222" stroke-width="2"/>
<path d="M9 29.8528C8.58246 29.9497 8.1504 30 7.70818 30C4.00336 30 1 26.4566 1 22.0849C1 17.7132 4.00336 15 7.70818 15" stroke="#222222" stroke-width="2"/>
<path fill-rule="evenodd" clip-rule="evenodd" d="M8 15H12V22.5009V30H8V15Z" fill="white" stroke="#222222" stroke-width="2"/>
<path d="M36.5071 30C40.3731 30 43 26.8717 43 22.5C43 18.1283 39.866 15 36 15" stroke="#222222" stroke-width="2"/>
<path fill-rule="evenodd" clip-rule="evenodd" d="M36 15H32V22.5009V30H36V15Z" fill="white" stroke="#222222" stroke-width="2"/>
<path fill-rule="evenodd" clip-rule="evenodd" d="M18.992 37H24.008C25.66 37 27 37.4214 27 38.6949C27 39.9676 25.66 41 24.008 41H18.992C17.34 41 16 39.9676 16 38.6949C16 37.4214 17.34 37 18.992 37Z" fill="white" stroke="#222222" stroke-width="2"/>
<path d="M20.9767 26.7661H22.5967C22.2167 23.626 25.8367 22.4661 25.8367 19.5261C25.8367 17.3261 24.3567 15.946 22.0767 15.946C20.4567 15.946 19.1967 16.746 18.2567 17.7861L19.2967 18.746C19.9967 17.946 20.8967 17.466 21.8967 17.466C23.3167 17.466 24.0567 18.446 24.0567 19.646C24.0567 22.006 20.4967 23.2861 20.9767 26.7661ZM21.8367 31.4661C22.5567 31.4661 23.1567 30.8861 23.1567 30.0661C23.1567 29.2261 22.5567 28.6661 21.8367 28.6661C21.0967 28.6661 20.5167 29.2261 20.5167 30.0661C20.5167 30.8861 21.0967 31.4661 21.8367 31.4661Z" fill="#333333"/>
</svg>
