<?xml version="1.0" encoding="utf-8"?>
<!-- Generator: Adobe Illustrator 26.2.1, SVG Export Plug-In . SVG Version: 6.00 Build 0)  -->
<svg version="1.1" id="레이어_1" xmlns="http://www.w3.org/2000/svg" xmlns:xlink="http://www.w3.org/1999/xlink" x="0px"
	 y="0px" viewBox="0 0 79.3 81.1" style="enable-background:new 0 0 79.3 81.1;" xml:space="preserve">
<style type="text/css">
	.st0{fill:#FFFFFF;}
</style>
<g>
	<path class="st0" d="M71.1,8.2H8.2c-2.9,0-5.2,2.4-5.2,5.2v54.2c0,2.9,2.4,5.2,5.2,5.2h62.9c2.9,0,5.2-2.4,5.2-5.2V13.5
		C76.3,10.6,74,8.2,71.1,8.2z M72.8,67.6c0,1-0.8,1.7-1.7,1.7H8.2c-1,0-1.7-0.8-1.7-1.7V13.5c0-1,0.8-1.7,1.7-1.7h62.9
		c1,0,1.7,0.8,1.7,1.7V67.6z"/>
	<path class="st0" d="M57.9,39L22.9,21.5c-0.5-0.3-1.2-0.2-1.7,0.1c-0.5,0.3-0.8,0.9-0.8,1.5V58c0,0.6,0.3,1.2,0.8,1.5
		c0.3,0.2,0.6,0.3,0.9,0.3c0.3,0,0.5-0.1,0.8-0.2l34.9-17.5c0.6-0.3,1-0.9,1-1.6C58.8,39.9,58.5,39.3,57.9,39z M23.9,55.2V25.9
		l29.3,14.6L23.9,55.2z"/>
</g>
</svg>
