<svg width="44" height="44" viewBox="0 0 44 44" fill="none" xmlns="http://www.w3.org/2000/svg">
<path fill-rule="evenodd" clip-rule="evenodd" d="M1 25.3388C1 19.4313 7.26712 14 15.0005 14C22.7319 14 29 19.4313 29 25.3388C29 32.3276 22.7319 36.6786 15.0005 36.6786C14.2417 36.6786 13.4978 36.6277 12.7717 36.5336C12.4003 37.1626 10.7661 39.4374 6.76034 38.9256C6.76034 38.9256 8.76414 37.5323 8.59801 35.9574C4.08736 33.5395 1 29.733 1 25.3388Z" fill="white" stroke="#222222" stroke-width="2"/>
<path fill-rule="evenodd" clip-rule="evenodd" d="M22.5882 27C21.8089 27 21.1765 26.329 21.1765 25.5C21.1765 24.672 21.8089 24 22.5882 24C23.3685 24 24 24.672 24 25.5C24 26.329 23.3685 27 22.5882 27ZM16 27C15.2207 27 14.5882 26.329 14.5882 25.5C14.5882 24.672 15.2207 24 16 24C16.7802 24 17.4118 24.672 17.4118 25.5C17.4118 26.329 16.7802 27 16 27ZM9.41176 27C8.63247 27 8 26.329 8 25.5C8 24.672 8.63247 24 9.41176 24C10.192 24 10.8235 24.672 10.8235 25.5C10.8235 26.329 10.192 27 9.41176 27Z" fill="#F0F4F4" stroke="#222222" stroke-width="2"/>
<path fill-rule="evenodd" clip-rule="evenodd" d="M43 15.2981C43 9.56251 36.9568 4 30.0721 4C22.0441 4 16 9.56251 16 15.2981C16 21.5376 22.0441 26.5963 30.0721 26.5963C30.2314 26.5963 30.9486 26.546 31.6487 26.8341C32.0068 27.0788 33.5825 29.6676 37.4457 28.836C37.4457 28.836 35.9022 27.2229 35.6739 25.3439C40.0223 23.4688 43 20.0067 43 15.2981Z" fill="white" stroke="#222222" stroke-width="2"/>
<path fill-rule="evenodd" clip-rule="evenodd" d="M36.5882 17C35.8089 17 35.1765 16.3288 35.1765 15.4995C35.1765 14.6712 35.8089 14 36.5882 14C37.3685 14 38 14.6712 38 15.4995C38 16.3288 37.3685 17 36.5882 17ZM30 17C29.2207 17 28.5882 16.3288 28.5882 15.4995C28.5882 14.6712 29.2207 14 30 14C30.7802 14 31.4118 14.6712 31.4118 15.4995C31.4118 16.3288 30.7802 17 30 17ZM23.4118 17C22.6325 17 22 16.3288 22 15.4995C22 14.6712 22.6325 14 23.4118 14C24.192 14 24.8235 14.6712 24.8235 15.4995C24.8235 16.3288 24.192 17 23.4118 17Z" fill="#F0F4F4" stroke="#222222" stroke-width="2"/>
</svg>
