<?xml version="1.0" encoding="utf-8"?>
<!-- Generator: Adobe Illustrator 26.2.1, SVG Export Plug-In . SVG Version: 6.00 Build 0)  -->
<svg version="1.1" id="레이어_1" xmlns="http://www.w3.org/2000/svg" xmlns:xlink="http://www.w3.org/1999/xlink" x="0px"
	 y="0px" viewBox="0 0 79.3 81.1" style="enable-background:new 0 0 79.3 81.1;" xml:space="preserve">
<style type="text/css">
	.st0{fill:#FFFFFF;}
</style>
<path class="st0" d="M20.9,66.8c1,0,1.9-0.8,1.9-1.9V37.6c0-1-0.8-1.9-1.9-1.9c-2.8,0-5.6,0.8-8,2.2c-1.5,0.9-2.8,2-3.8,3.2
	C9.3,29.5,13,5.3,39.6,5.3c18.8,0,30.2,13.4,30.5,35.8c-1.1-1.2-2.4-2.3-3.8-3.2c-2.4-1.4-5.2-2.2-8-2.2c-1,0-1.9,0.8-1.9,1.9V65
	c0,1,0.8,1.9,1.9,1.9c1.5,0,2.9-0.2,4.2-0.6v4.4l-14.1,5.2c-1,0.4-1.4,1.4-1.1,2.4c0.3,0.7,1,1.2,1.7,1.2c0.2,0,0.4,0,0.6-0.1
	L65,73.7c0.7-0.3,1.2-1,1.2-1.7v-7.3c4.6-2.7,7.6-7.7,7.6-13.4v0v0v-8.9c0-11.5-2.8-21.3-8-28.4c-6-8.1-15-12.3-26.2-12.3
	c-11.5,0-20.4,4.1-26.3,12.1c-5.2,7-7.9,16.9-7.9,28.6v8.9v0v0C5.4,59.8,12.3,66.8,20.9,66.8z M60.2,63V39.6
	c1.5,0.2,2.9,0.8,4.2,1.5c3.6,2.2,5.8,6,5.8,10.2C70.2,57.2,65.8,62.1,60.2,63z M14.8,41.1c1.3-0.8,2.7-1.3,4.2-1.5V63
	c-5.6-0.9-10-5.8-10-11.7C9.1,47.1,11.2,43.3,14.8,41.1z"/>
</svg>
