<?xml version="1.0" encoding="utf-8"?>
<!-- Generator: Adobe Illustrator 26.2.1, SVG Export Plug-In . SVG Version: 6.00 Build 0)  -->
<svg version="1.1" id="레이어_1" xmlns="http://www.w3.org/2000/svg" xmlns:xlink="http://www.w3.org/1999/xlink" x="0px"
	 y="0px" viewBox="0 0 104 104" style="enable-background:new 0 0 104 104;" xml:space="preserve">
<style type="text/css">
	.st0{fill:none;stroke:#FFFFFF;stroke-width:2;stroke-linecap:round;stroke-linejoin:round;}
	.st1{fill:#182343;stroke:#FFFFFF;stroke-width:2;stroke-linecap:round;stroke-linejoin:round;}
	.st2{fill:none;stroke:#0971FF;stroke-width:2;}
	.st3{fill:#182343;stroke:#0971FF;stroke-width:2;}
	.st4{fill:#0971FF;}
	.st5{fill:#182343;stroke:#FFFFFF;stroke-width:2;stroke-linecap:round;}
</style>
<g>
	<g>
		<path class="st0" d="M22.9,62.1l-8.7-5.2l2.1,8.9L6,71.7v11.1l14.2,7.9v9h7.4l3.4-6.5H41l3.1,7h6.5l0.6-10.4
			c0,0,10.8-6.8,7.1-20.3C54.7,56,34.7,53.2,22.9,62.1z"/>
		<path class="st1" d="M8.6,80.8c0,1.6-1.3,2.8-2.8,2.8l0,0c-1.6,0-2.8-1.3-2.8-2.8v-7.9c0-1.6,1.3-2.8,2.8-2.8l0,0
			c1.6,0,2.8,1.3,2.8,2.8V80.8z"/>
		<line class="st1" x1="19.7" y1="72.1" x2="19.7" y2="74.2"/>
		<g>
			<path class="st1" d="M44.7,61.4c0.6-1.1,1-2.4,1-3.7c0-4.1-3.3-7.4-7.4-7.4c-4.1,0-7.4,3.3-7.4,7.4c0,1.4,0.4,2.6,1,3.7
				c1.8-0.9,4-1.4,6.3-1.4C40.7,60.1,42.9,60.6,44.7,61.4z"/>
		</g>
		<path class="st0" d="M53.9,40.9c0,3.4-2.8,6.2-6.2,6.2c-3.4,0-6.2-2.8-6.2-6.2s2.8-6.2,6.2-6.2C51.2,34.7,53.9,37.5,53.9,40.9z"/>
		<path class="st1" d="M59.2,76.6c0,0,8.3-1.5,10.3-5.9c2.1-4.4-10-2.9-4.1,4.7c5.9,7.7,15.3-1.5,15.3-1.5"/>
	</g>
	<g>
		<g>
			<g>
				<g>
					<line class="st2" x1="81.1" y1="8.1" x2="81.1" y2="14.5"/>
					<path class="st2" d="M87.4,5.5c0,1.4-1.2,2.6-2.6,2.6h-7.5c-1.4,0-2.6-1.2-2.6-2.6l0,0c0-1.4,1.2-2.6,2.6-2.6h7.5
						C86.3,3,87.4,4.1,87.4,5.5L87.4,5.5z"/>
				</g>
				<circle class="st2" cx="81.1" cy="32.8" r="18.4"/>
				
					<ellipse transform="matrix(0.2298 -0.9732 0.9732 0.2298 30.507 104.1814)" class="st2" cx="81.1" cy="32.8" rx="13.8" ry="13.8"/>
			</g>
			<path class="st3" d="M94.6,21.5c-0.8,0.8-2,0.8-2.8,0l0,0c-0.8-0.8-0.8-2,0-2.8l4.2-4.2c0.8-0.8,2-0.8,2.8,0l0,0
				c0.8,0.8,0.8,2,0,2.8L94.6,21.5z"/>
		</g>
	</g>
	<g>
		<g>
			<path class="st4" d="M75,27.2h2.1l0.8,5c0.2,1.1,0.3,2.2,0.5,3.3h0.1c0.2-1.1,0.4-2.2,0.7-3.3l1.2-5H82l1.2,5
				c0.2,1.1,0.4,2.2,0.7,3.3H84c0.2-1.1,0.3-2.2,0.5-3.3l0.8-5h2l-1.9,10.3h-2.6l-1.2-5.1c-0.2-0.8-0.3-1.6-0.4-2.4h-0.1
				c-0.1,0.8-0.3,1.6-0.4,2.4l-1.1,5.1h-2.5L75,27.2z"/>
		</g>
		<rect x="73.5" y="31.6" class="st4" width="15.2" height="1.6"/>
	</g>
	<g>
		<g>
			<path class="st1" d="M96.7,93.4c0,0,0.1,0.3,0.3,0.7c-1.4-0.4-3-0.6-4.8-0.6c-0.7,0-1.5,0-2.1,0.1l0.1-0.4l-6.8-0.8
				c0,0,0,4.8,0,4.8c0,2,4,3.7,8.9,3.7c4.9,0,8.9-1.6,8.9-3.7v-4.7C101,92.5,96.7,93.3,96.7,93.4z"/>
			<path class="st5" d="M101,91.7c0,2-4,3.7-8.9,3.7c-4.9,0-8.9-1.6-8.9-3.7c0-2,4-3.7,8.9-3.7C97.1,88.1,101,89.7,101,91.7z"/>
		</g>
		<g>
			<path class="st1" d="M96.7,85.1c0,0,0.1,0.3,0.3,0.7c-1.4-0.4-3-0.6-4.8-0.6c-0.7,0-1.5,0-2.1,0.1l0.1-0.4L83.3,84
				c0,0,0,4.8,0,4.8c0,2,4,3.7,8.9,3.7c4.9,0,8.9-1.6,8.9-3.7v-4.7C101,84.1,96.7,84.9,96.7,85.1z"/>
			<path class="st5" d="M101,83.4c0,2-4,3.7-8.9,3.7c-4.9,0-8.9-1.6-8.9-3.7c0-2,4-3.7,8.9-3.7C97.1,79.7,101,81.4,101,83.4z"/>
		</g>
		<g>
			<path class="st1" d="M74.3,93.9c0,0,0.1,0.3,0.3,0.7c-1.3-0.4-2.9-0.6-4.7-0.6c-0.7,0-1.4,0-2.1,0.1l0.1-0.4l-6.5-0.8
				c0,0,0,4.6,0,4.7c0,1.9,3.8,3.5,8.6,3.5c4.7,0,8.6-1.6,8.6-3.5v-4.6C78.5,92.9,74.3,93.7,74.3,93.9z"/>
			<path class="st5" d="M78.5,92.3c0,1.9-3.8,3.5-8.6,3.5c-4.7,0-8.6-1.6-8.6-3.5c0-1.9,3.8-3.5,8.6-3.5
				C74.7,88.7,78.5,90.3,78.5,92.3z"/>
		</g>
	</g>
</g>
</svg>
