<svg width="44" height="44" viewBox="0 0 44 44" fill="none" xmlns="http://www.w3.org/2000/svg">
<g clip-path="url(#clip0_2_48)">
<path fill-rule="evenodd" clip-rule="evenodd" d="M1 14H42.9414L43 40.8588L1 41V14Z" fill="white" stroke="#222222" stroke-width="2"/>
<path fill-rule="evenodd" clip-rule="evenodd" d="M30.1905 35.2731C25.5869 34.7569 21.6227 33.6188 21.0043 37.3196C21.0043 38.2053 21.0013 37.3473 21.0043 37.3216C21.0043 29.9569 20.9934 23.2173 21.0063 16.0476C21.0123 12.1076 21.5968 10.0048 25.8427 10.249C30.8358 9.41157 35.835 10.873 40 11.8737C39.998 19.1942 40 26.9591 40 34.2797C40 35.3162 40 36.3538 40 38C37.884 36.9388 34.2086 35.7555 30.1905 35.2731Z" fill="white" stroke="#222222" stroke-width="2"/>
<path fill-rule="evenodd" clip-rule="evenodd" d="M14.2052 32.9151C17.6418 32.406 20.229 32.9068 20.7255 36.6012C20.7255 37.4847 20.7281 36.6282 20.7255 36.6033C20.7255 29.2518 21.3443 22.5244 20.7237 15.1729C20.7184 11.4339 20.1234 8.99618 16.9693 9.23985C12.6823 8.4093 8.62504 9.85472 4 11.7491C4.00176 18.8103 4 24.6957 4 31.9332C4 32.9586 4 33.9841 4 35.0086C5.99297 34.5627 10.0634 33.3931 14.2052 32.9151Z" fill="white" stroke="#222222" stroke-width="2"/>
<path fill-rule="evenodd" clip-rule="evenodd" d="M30.4857 30.7235C25.793 30.2249 23.1773 31.6444 20.5313 34.874C20.5312 36.464 20.0006 35.9126 20.0049 35.8876C20.0049 28.6967 19.9933 20.5268 20.0059 13.3359C20.0122 10.5591 20.7279 7.29411 25.2136 7.02975C30.4888 6.7196 32.3306 8.91463 37 9.88153C36.9979 17.8238 37 23.4317 37 30.5111C37 32.2076 37 32.8738 37 33.7272C35.9375 32.8468 32.4974 30.9372 30.4857 30.7235Z" fill="white" stroke="#222222" stroke-width="2"/>
<path fill-rule="evenodd" clip-rule="evenodd" d="M20.9139 37.9819C20.9139 38.1368 21.1076 37.2628 20.9139 36.6592C20.9139 28.843 20.9204 21.6886 20.913 13.8713C20.9084 9.89577 20.9748 8.59217 18.784 6.3085C16.2077 3.62281 13.0884 2.98746 9 3.00019C9.00092 10.6913 9.09313 19.6701 9.09313 27.3612C9.09313 28.4505 9 27.7918 9 28.8822C9.33471 28.8705 18.8614 28.6234 20.9139 37.9819Z" fill="white" stroke="#222222" stroke-width="2"/>
</g>
<defs>
<clipPath id="clip0_2_48">
<rect width="44" height="44" fill="white"/>
</clipPath>
</defs>
</svg>
