<svg width="44" height="44" viewBox="0 0 44 44" fill="none" xmlns="http://www.w3.org/2000/svg">
<path fill-rule="evenodd" clip-rule="evenodd" d="M9.09677 5H34.9032C36.6137 5 38 6.344 38 8V38C38 39.657 36.6137 41 34.9032 41H9.09677C7.38735 41 6 39.657 6 38V8C6 6.344 7.38735 5 9.09677 5Z" stroke="#222222" stroke-width="2"/>
<path fill-rule="evenodd" clip-rule="evenodd" d="M10 5H34V37H10V5Z" stroke="#222222" stroke-width="2"/>
<path fill-rule="evenodd" clip-rule="evenodd" d="M16.1667 2H28.8333C30.5824 2 32 3.343 32 5C32 6.657 30.5824 8 28.8333 8H16.1667C14.4187 8 13 6.657 13 5C13 3.343 14.4187 2 16.1667 2Z" fill="white" stroke="#222222" stroke-width="2"/>
<path fill-rule="evenodd" clip-rule="evenodd" d="M16.0769 14H27.9231C28.5186 14 29 14.448 29 15C29 15.553 28.5186 16 27.9231 16H16.0769C15.4825 16 15 15.553 15 15C15 14.448 15.4825 14 16.0769 14Z" fill="#222222"/>
<path fill-rule="evenodd" clip-rule="evenodd" d="M16.0341 19H24.9659C25.5367 19 26 19.448 26 20C26 20.553 25.5367 21 24.9659 21H16.0341C15.4633 21 15 20.553 15 20C15 19.448 15.4633 19 16.0341 19Z" fill="#222222"/>
<path fill-rule="evenodd" clip-rule="evenodd" d="M16.2308 24H21.7692C23.0258 24 23 24.448 23 25C23 25.553 23.0258 26 21.7692 26H16.2308C15.5514 26 15 25.553 15 25C15 24.448 15.5514 24 16.2308 24Z" fill="#222222"/>
</svg>
