<svg width="77" height="77" viewBox="0 0 77 77" fill="none" xmlns="http://www.w3.org/2000/svg">
<path d="M4.99899 4.999H70.999V70.999H4.99899V4.999Z" fill="white" stroke="#222222" stroke-width="2"/>
<g clip-path="url(#clip0_1_14)">
<path fill-rule="evenodd" clip-rule="evenodd" d="M37.999 5.999V70.998Z" fill="#00B2FF"/>
<path d="M37.999 5.999V70.998" stroke="#222222" stroke-width="2"/>
<path fill-rule="evenodd" clip-rule="evenodd" d="M70.999 37.998H5.99899Z" fill="#00B2FF"/>
<path d="M70.999 37.998H5.99899" stroke="#222222" stroke-width="2"/>
<path fill-rule="evenodd" clip-rule="evenodd" d="M71 5L8 68Z" fill="#00B2FF"/>
<path d="M71 5L8 68" stroke="#222222" stroke-width="2"/>
<path fill-rule="evenodd" clip-rule="evenodd" d="M69.293 69.3L6.698 6.705Z" fill="#00B2FF"/>
<path d="M69.293 69.3L6.698 6.705" stroke="#222222" stroke-width="2"/>
</g>
<path d="M67.999 73.999V67.999H73.999V73.999H67.999ZM67.999 34.999H73.999V40.999H67.999V34.999ZM67.999 1.999H73.999V7.999H67.999V1.999ZM34.999 67.999H40.999V73.999H34.999V67.999ZM34.999 1.999H40.999V7.999H34.999V1.999ZM1.99899 67.999H7.99899V73.999H1.99899V67.999ZM1.99899 34.999H7.99899V40.999H1.99899V34.999ZM1.99899 1.999H7.99899V7.999H1.99899V1.999Z" fill="white" stroke="#222222" stroke-width="2"/>
<mask id="path-11-inside-1_1_14" fill="white">
<path fill-rule="evenodd" clip-rule="evenodd" d="M54.999 28.5V46.998L36.998 56.985V38"/>
</mask>
<path fill-rule="evenodd" clip-rule="evenodd" d="M54.999 28.5V46.998L36.998 56.985V38" fill="#0971FF"/>
<path d="M54.999 46.998L55.9693 48.7469L56.999 48.1756V46.998H54.999ZM36.998 56.985H34.998V60.3818L37.9683 58.7339L36.998 56.985ZM52.999 28.5V46.998H56.999V28.5H52.999ZM54.0287 45.2491L36.0277 55.2361L37.9683 58.7339L55.9693 48.7469L54.0287 45.2491ZM38.998 56.985V38H34.998V56.985H38.998Z" fill="#222222" mask="url(#path-11-inside-1_1_14)"/>
<mask id="path-13-inside-2_1_14" fill="white">
<path fill-rule="evenodd" clip-rule="evenodd" d="M21 28.5V46.998L39.1 56.985V37.5"/>
</mask>
<path fill-rule="evenodd" clip-rule="evenodd" d="M21 28.5V46.998L39.1 56.985V37.5" fill="#0971FF"/>
<path d="M21 46.998H19V48.1787L20.0338 48.7491L21 46.998ZM39.1 56.985L38.1338 58.7361L41.1 60.3728V56.985H39.1ZM19 28.5V46.998H23V28.5H19ZM20.0338 48.7491L38.1338 58.7361L40.0662 55.2339L21.9662 45.2469L20.0338 48.7491ZM41.1 56.985V37.5H37.1V56.985H41.1Z" fill="#222222" mask="url(#path-13-inside-2_1_14)"/>
<path d="M23.0499 28.4475L38 20.1439L52.9501 28.4475L38 36.8528L23.0499 28.4475Z" fill="#0971FF" stroke="#222222" stroke-width="2"/>
<defs>
<clipPath id="clip0_1_14">
<rect width="68" height="68" fill="white" transform="translate(5 5)"/>
</clipPath>
</defs>
</svg>
