<svg width="77" height="77" viewBox="0 0 77 77" fill="none" xmlns="http://www.w3.org/2000/svg">
<path d="M59.5 23.5V24.9274L60.8415 24.4399C61.7236 24.1193 62.3297 24.113 63.532 24.113C69.3861 24.113 74.6 28.8522 74.6 34.549C74.6 40.2446 69.3863 44.983 63.532 44.983H15.81C8.17902 44.983 1.998 38.8195 1.998 31.221C1.998 24.2184 8.20588 17.46 15.81 17.46C17.7892 17.46 19.6666 17.882 21.3709 18.6306L22.5121 19.1318L22.754 17.9091C24.5404 8.88015 31.6973 2.2 40.981 2.2C51.1644 2.2 59.39 10.2318 59.39 20.345C59.39 20.8987 59.4154 21.3198 59.4407 21.7413C59.4428 21.7748 59.4448 21.8083 59.4468 21.8419C59.4737 22.2933 59.5 22.7784 59.5 23.5Z" fill="#0971FF" stroke="#222222" stroke-width="2"/>
<path d="M14.999 61.999H60.999V73.999H14.999V61.999Z" fill="white" stroke="#222222" stroke-width="2"/>
<path d="M14.999 49.999H60.999V61.999H14.999V49.999Z" fill="white" stroke="#222222" stroke-width="2"/>
<path d="M14.999 37.999H60.999V49.999H14.999V37.999Z" fill="white" stroke="#222222" stroke-width="2"/>
<path fill-rule="evenodd" clip-rule="evenodd" d="M51.999 68.999V66.999H55.999V68.999H51.999ZM51.999 54.999H55.999V56.999H51.999V54.999ZM51.999 42.999H55.999V44.999H51.999V42.999ZM46 66.999H49.999V68.999H46V66.999ZM46 54.999H49.999V56.999H46V54.999ZM46 42.999H49.999V44.999H46V42.999Z" fill="#222222"/>
</svg>
