<svg width="75" height="77" viewBox="0 0 75 77" fill="none" xmlns="http://www.w3.org/2000/svg">
<g clip-path="url(#clip0_1_36)">
<path d="M29.12 62V56.29L31.12 52.81C33.59 48.51 34.88 43.72 34.88 38.86V30.53V16.09C34.88 14.4 33.51 12.89 31.67 12.8C29.72 12.71 28.1 14.14 28.1 15.91V12.16C28.1 10.47 26.73 8.96 24.89 8.87C22.94 8.78 21.32 10.21 21.32 11.98V7.29C21.32 5.6 19.95 4.09 18.11 4C16.16 3.91 14.54 5.34 14.54 7.11V11.99C14.54 10.21 12.92 8.78 10.97 8.88C9.14 8.97 7.76 10.48 7.76 12.17V26.97C7.76 25.19 6.14 23.76 4.19 23.86C2.36 23.95 0.98 25.46 0.98 27.15V39.65C0.98 42.62 2.23 45.48 4.46 47.62L11.49 56.3V62.01" fill="white"/>
<path d="M29.12 62V56.29L31.12 52.81C33.59 48.51 34.88 43.72 34.88 38.86V30.53V16.09C34.88 14.4 33.51 12.89 31.67 12.8C29.72 12.71 28.1 14.14 28.1 15.91V12.16C28.1 10.47 26.73 8.96 24.89 8.87C22.94 8.78 21.32 10.21 21.32 11.98V7.29C21.32 5.6 19.95 4.09 18.11 4C16.16 3.91 14.54 5.34 14.54 7.11V11.99C14.54 10.21 12.92 8.78 10.97 8.88C9.14 8.97 7.76 10.48 7.76 12.17V26.97C7.76 25.19 6.14 23.76 4.19 23.86C2.36 23.95 0.98 25.46 0.98 27.15V39.65C0.98 42.62 2.23 45.48 4.46 47.62L11.49 56.3V62.01" stroke="#222222" stroke-width="2" stroke-linecap="round" stroke-linejoin="round"/>
<path d="M7.78 26.97V35.57L8.18 35.7C14.03 37.59 17.94 42.67 17.94 48.37" fill="white"/>
<path d="M7.78 26.97V35.57L8.18 35.7C14.03 37.59 17.94 42.67 17.94 48.37" stroke="#222222" stroke-width="2" stroke-linecap="round" stroke-linejoin="round"/>
</g>
<g clip-path="url(#clip1_1_36)">
<path d="M45.76 62V56.29L43.76 52.81C41.29 48.51 40 43.72 40 38.86V30.53V16.09C40 14.4 41.37 12.89 43.21 12.8C45.16 12.71 46.78 14.14 46.78 15.91V12.16C46.78 10.47 48.15 8.96 49.99 8.87C51.94 8.78 53.56 10.21 53.56 11.98V7.29C53.56 5.6 54.93 4.09 56.77 4C58.72 3.91 60.34 5.34 60.34 7.11V11.99C60.34 10.21 61.96 8.78 63.91 8.88C65.74 8.97 67.12 10.48 67.12 12.17V26.97C67.12 25.19 68.74 23.76 70.69 23.86C72.52 23.95 73.9 25.46 73.9 27.15V39.65C73.9 42.62 72.65 45.48 70.42 47.62L63.39 56.3V62.01" fill="white"/>
<path d="M45.76 62V56.29L43.76 52.81C41.29 48.51 40 43.72 40 38.86V30.53V16.09C40 14.4 41.37 12.89 43.21 12.8C45.16 12.71 46.78 14.14 46.78 15.91V12.16C46.78 10.47 48.15 8.96 49.99 8.87C51.94 8.78 53.56 10.21 53.56 11.98V7.29C53.56 5.6 54.93 4.09 56.77 4C58.72 3.91 60.34 5.34 60.34 7.11V11.99C60.34 10.21 61.96 8.78 63.91 8.88C65.74 8.97 67.12 10.48 67.12 12.17V26.97C67.12 25.19 68.74 23.76 70.69 23.86C72.52 23.95 73.9 25.46 73.9 27.15V39.65C73.9 42.62 72.65 45.48 70.42 47.62L63.39 56.3V62.01" stroke="#222222" stroke-width="2" stroke-linecap="round" stroke-linejoin="round"/>
<path d="M67.1 26.97V35.57L66.7 35.7C60.85 37.59 56.94 42.67 56.94 48.37" fill="white"/>
<path d="M67.1 26.97V35.57L66.7 35.7C60.85 37.59 56.94 42.67 56.94 48.37" stroke="#222222" stroke-width="2" stroke-linecap="round" stroke-linejoin="round"/>
</g>
<g clip-path="url(#clip2_1_36)">
<path fill-rule="evenodd" clip-rule="evenodd" d="M11 58.999H30.999C32.104 58.999 32.999 59.895 32.999 60.999V65.999H8.999V60.999C8.999 59.895 9.895 58.999 11 58.999Z" fill="white" stroke="#222222" stroke-width="2"/>
<path fill-rule="evenodd" clip-rule="evenodd" d="M44.999 58.999H64.999C66.104 58.999 66.999 59.895 66.999 60.999V65.999H42.999V60.999C42.999 59.895 43.895 58.999 44.999 58.999Z" fill="white" stroke="#222222" stroke-width="2"/>
<path fill-rule="evenodd" clip-rule="evenodd" d="M9.999 62.999H31.999C33.104 62.999 33.999 63.895 33.999 64.999V74.999H7.999V64.999C7.999 63.895 8.895 62.999 9.999 62.999Z" fill="white" stroke="#222222" stroke-width="2"/>
<path fill-rule="evenodd" clip-rule="evenodd" d="M43.999 62.999H65.999C67.104 62.999 67.999 63.895 67.999 64.999V74.999H41.999V64.999C41.999 63.895 42.895 62.999 43.999 62.999Z" fill="white" stroke="#222222" stroke-width="2"/>
<path fill-rule="evenodd" clip-rule="evenodd" d="M6.999 6.999H68.999V36.999H6.999V6.999Z" fill="#0971FF" stroke="#222222" stroke-width="2"/>
<path fill-rule="evenodd" clip-rule="evenodd" d="M6.999 0.999H68.999V30.999H6.999V0.999Z" fill="#0971FF" stroke="#222222" stroke-width="2"/>
<path fill-rule="evenodd" clip-rule="evenodd" d="M14.12 21.531V10.475C15.373 10.475 16.476 9.373 16.476 8.12H59.533C59.533 9.373 60.636 10.475 61.997 10.475V21.531C60.636 21.531 59.533 22.634 59.533 23.994H16.476C16.476 22.634 15.373 21.531 14.12 21.531Z" fill="#0971FF" stroke="#222222" stroke-width="2"/>
<path fill-rule="evenodd" clip-rule="evenodd" d="M31.999 0.999H43.999V36.999H31.999V0.999Z" fill="white" stroke="#222222" stroke-width="2"/>
</g>
<defs>
<clipPath id="clip0_1_36">
<rect width="35.88" height="60" fill="white" transform="translate(0 3)"/>
</clipPath>
<clipPath id="clip1_1_36">
<rect width="35.88" height="60" fill="white" transform="matrix(-1 0 0 1 74.88 3)"/>
</clipPath>
<clipPath id="clip2_1_36">
<rect width="65" height="77" fill="white" transform="translate(6)"/>
</clipPath>
</defs>
</svg>
